<?xml version="1.0" standalone="no"?>
<!DOCTYPE svg PUBLIC "-//W3C//DTD SVG 20010904//EN"
 "http://www.w3.org/TR/2001/REC-SVG-20010904/DTD/svg10.dtd">
<svg version="1.0" xmlns="http://www.w3.org/2000/svg"
 width="512.000000pt" height="512.000000pt" viewBox="0 0 512.000000 512.000000"
 preserveAspectRatio="xMidYMid meet">
<metadata>
Created by potrace 1.14, written by Peter Selinger 2001-2017
</metadata>
<g transform="translate(0.000000,512.000000) scale(0.100000,-0.100000)"
fill="#000000" stroke="none">
<path d="M2379 5116 c-2 -2 -40 -6 -83 -10 -44 -4 -82 -8 -85 -10 -3 -2 -31
-7 -61 -11 -30 -3 -83 -13 -116 -20 -34 -8 -73 -16 -85 -19 -44 -9 -214 -59
-219 -65 -3 -3 -14 -8 -25 -9 -11 -2 -33 -10 -50 -17 -31 -13 -66 -27 -75 -30
-29 -7 -50 -18 -50 -24 0 -4 -6 -8 -12 -8 -43 0 -342 -172 -482 -277 -147
-111 -376 -322 -376 -347 0 -6 -4 -7 -10 -4 -5 3 -10 2 -10 -3 0 -5 -9 -20
-21 -33 -11 -13 -29 -34 -40 -46 -62 -74 -219 -302 -219 -321 0 -6 -4 -12 -9
-14 -7 -2 -123 -220 -127 -238 0 -3 -6 -17 -12 -32 -7 -16 -17 -40 -24 -55 -6
-16 -12 -30 -13 -33 -1 -3 -7 -18 -14 -35 -7 -16 -14 -40 -14 -52 -1 -11 -5
-19 -9 -17 -3 2 -12 -22 -18 -53 -7 -32 -16 -62 -20 -68 -6 -9 -22 -68 -34
-130 -3 -11 -11 -54 -20 -95 -15 -73 -17 -90 -35 -235 -9 -70 -7 -482 2 -520
3 -12 8 -48 12 -80 4 -33 9 -67 10 -75 6 -29 37 -175 41 -190 21 -86 38 -146
43 -150 3 -3 8 -16 10 -30 1 -14 8 -28 15 -32 6 -4 8 -8 4 -8 -8 0 25 -91 65
-183 l26 -57 -25 -27 c-13 -14 -24 -23 -24 -20 0 3 -14 -8 -30 -25 -17 -16
-30 -34 -30 -39 0 -5 -4 -9 -9 -9 -12 0 -68 -116 -75 -152 -2 -15 -7 -32 -11
-38 -8 -13 -9 -136 -1 -180 18 -97 41 -165 92 -267 31 -62 60 -113 65 -113 5
0 9 -6 9 -13 0 -40 242 -302 362 -392 72 -54 88 -65 97 -65 6 0 11 -5 11 -10
0 -6 17 -18 38 -28 20 -9 39 -19 42 -22 3 -3 31 -18 64 -33 53 -25 62 -27 95
-16 44 15 123 58 133 73 4 6 8 8 8 3 0 -7 71 36 96 58 7 5 24 19 40 30 15 11
36 28 46 38 10 9 18 15 18 12 0 -3 17 12 38 33 36 36 38 37 67 23 17 -8 32
-18 33 -23 2 -4 7 -6 12 -3 5 3 16 -2 24 -11 9 -8 16 -13 16 -9 0 3 19 -5 43
-18 23 -13 48 -22 56 -19 9 3 11 0 6 -8 -6 -9 -4 -11 4 -6 7 5 21 0 32 -10 10
-9 19 -14 19 -11 0 3 28 -6 63 -20 34 -14 73 -27 86 -30 14 -2 29 -7 35 -11 6
-3 16 -8 21 -9 94 -26 244 -63 268 -66 18 -3 46 -8 62 -11 120 -23 222 -30
420 -31 210 0 299 7 450 35 28 5 61 11 75 14 69 11 210 50 210 58 0 5 4 7 9 3
11 -6 200 60 295 104 37 17 73 31 81 31 7 0 15 4 17 8 2 4 42 29 90 55 156 84
413 261 425 294 3 7 8 11 12 8 4 -2 39 27 78 64 l71 69 48 -29 c27 -16 57 -29
67 -29 10 0 16 -4 13 -8 -2 -4 5 -9 17 -9 28 -3 132 56 222 123 75 56 185 166
185 184 0 6 5 8 10 5 6 -3 10 -1 10 5 0 6 5 16 10 23 47 55 60 73 60 83 0 6 9
21 20 34 11 13 21 27 21 32 3 18 5 24 16 43 18 34 43 148 43 199 0 53 -18 136
-30 136 -4 0 -11 11 -14 25 -3 13 -28 45 -54 71 l-48 47 23 66 c13 36 26 73
28 81 40 161 65 270 64 276 -1 5 0 11 1 14 6 17 16 81 27 185 17 158 6 576
-17 635 -1 3 -2 9 -1 13 1 5 -6 43 -15 85 -8 42 -18 88 -20 102 -3 14 -14 57
-26 95 -22 77 -22 76 -33 123 -4 17 -12 32 -17 32 -5 0 -7 3 -5 8 3 4 0 18 -6
32 -5 14 -11 30 -13 35 -7 26 -57 141 -66 153 -6 6 -8 12 -5 12 16 0 -155 299
-235 411 -30 42 -58 81 -62 88 -4 6 8 35 28 66 63 94 115 207 137 295 12 47
24 92 26 100 6 16 5 69 -3 135 -22 187 -194 344 -396 362 -62 6 -208 -21 -208
-38 0 -6 -4 -8 -9 -5 -12 8 -88 -48 -132 -96 l-36 -39 -35 40 c-20 23 -41 41
-47 41 -6 0 -11 4 -11 8 0 15 -93 61 -155 77 -65 17 -161 20 -169 6 -3 -5 -15
-7 -25 -4 -17 4 -149 -50 -161 -67 -10 -13 -43 -20 -54 -12 -22 18 -308 83
-426 98 -25 3 -56 8 -70 10 -28 6 -456 15 -461 10z"/>
</g>
</svg>
